<svg xmlns="http://www.w3.org/2000/svg" width="55" height="35"><path d="M2.981 0h49.088A2.929 2.929 0 0155 2.929l-.051 29.143a2.929 2.929 0 01-2.931 2.929H2.931A2.929 2.929 0 010 32.072L.051 2.929A2.929 2.929 0 012.981 0z"/><path d="M11.059 12.83a5.027 5.027 0 011.614-.26 5.1 5.1 0 015 4.083l3.5-.714A8.666 8.666 0 009.936 9.447z" fill="#fff100"/><path d="M6.923 24.163l2.365-2.677a5.1 5.1 0 010-7.637l-2.365-2.67a8.672 8.672 0 000 12.984z" fill="#00a3df"/><path d="M17.671 18.69a5.114 5.114 0 01-6.618 3.815l-1.13 3.384a8.675 8.675 0 0011.244-6.485z" fill="#ee4023"/><path d="M32.844 21.085a3.093 3.093 0 01-2.224.892 3.024 3.024 0 01-1.606-.483l-1.16 1.844a5.3 5.3 0 006.514-.692zm-2.1-7.518a5.289 5.289 0 00-4.514 8.173l9.578-4.1a5.3 5.3 0 00-5.061-4.073zm-3.175 5.622a3.029 3.029 0 01-.022-.372 3.114 3.114 0 013.16-3.064 3.079 3.079 0 012.328 1.108zm11.251-8v10.21l1.77.736-.84 2.015-1.755-.729a1.959 1.959 0 01-.863-.729 2.283 2.283 0 01-.342-1.264V11.187zm6.388 4.722a3.127 3.127 0 014.038 2.335l2.134-.439a5.289 5.289 0 00-5.183-4.231 5.365 5.365 0 00-1.673.268zm-2.521 6.908l1.443-1.629a3.116 3.116 0 010-4.663l-1.443-1.629a5.285 5.285 0 000 7.92zm6.559-3.332a3.1 3.1 0 01-4.038 2.328l-.692 2.067a5.287 5.287 0 006.864-3.956z" fill="#fff"/></svg>