<svg xmlns="http://www.w3.org/2000/svg" width="55" height="35"><defs><style>.b,.c{fill:#fff}.b{stroke:transparent}</style></defs><g transform="translate(-.001)"><rect width="55" height="35" rx="2" fill="#b3131b"/><path class="b" d="M14.109 24.126h-1.378l.018-.069c.012-.035.05-.225.1-.5l.011-.055.137-.708.019-.1.035-.188c.055-.288.147-.787.195-1.053.058-.307.138-.738.177-.961l.114-.616.02-.114.039-.213a87.29 87.29 0 00.227-1.276l.024-.147c.04-.245.086-.521.12-.7.031-.205.085-.53.138-.849l.035-.209.2-1.223.1-.646h1.179v.04c0 .018-.024.135-.05.256l-.013.062-.057.283.085-.058a.708.708 0 00.128-.1 1.88 1.88 0 01.161-.114l.047-.034c.071-.045.2-.115.381-.209l.217-.1.248-.058.248-.063.3-.035.307-.035.27.023.27.018.275.065.27.067.248.127.249.129.207.221.208.221.107.219.106.21.068.288.066.288.023.288.017.288-.035.342c-.018.18-.066.483-.1.673l-.062.331-.124.386c-.078.231-.189.534-.261.7a3.568 3.568 0 01-.226.454.764.764 0 00-.093.153 1.588 1.588 0 01-.151.215 4.578 4.578 0 01-.359.415l-.207.207-.226.142a3.112 3.112 0 01-.417.231l-.191.09-.358.092-.354.094-.333.023-.331.018-.257-.031-.261-.037-.217-.09-.222-.086-.177-.174-.177-.178-.08-.151a.637.637 0 00-.1-.155 1.425 1.425 0 00-.057.28l-.038.256-.016.106c-.022.137-.043.284-.062.417s-.048.3-.076.481c-.033.209-.068.429-.1.6-.053.327-.12.738-.147.922a5.029 5.029 0 00-.049.421.437.437 0 01-.023.147l-.017.045zm3.122-8.898l-.283.014-.288.022-.229.07-.222.072-.172.1a2.291 2.291 0 00-.354.247l-.186.151-.085.446-.041.233-.01.051-.129.718c-.045.258-.129.738-.182.99l-.08.431-.018.28-.013.274.039.174a2.271 2.271 0 00.112.331l.07.16.124.114.123.119.177.08.178.084.177.033.172.029.266-.018.269-.018.271-.094.27-.088.124-.099a3.42 3.42 0 00.23-.186 1.535 1.535 0 00.226-.254 3.923 3.923 0 00.252-.423l.133-.251.111-.311c.062-.186.148-.487.19-.673l.085-.358.013-.613.019-.6-.054-.2a2.4 2.4 0 00-.128-.356l-.075-.147-.138-.141-.144-.14-.164-.074-.162-.081-.235-.049zm6.146 6.084h-.352c-.2 0-.453-.017-.574-.032s-.338-.056-.483-.092l-.262-.063-.188-.091a2.212 2.212 0 01-.348-.2 2.785 2.785 0 01-.292-.259 1.807 1.807 0 01-.214-.287 2.68 2.68 0 01-.147-.319 3.971 3.971 0 01-.113-.384l-.05-.209v-.951l.051-.324a7.656 7.656 0 01.284-1.204c.045-.137.113-.316.149-.4s.123-.263.182-.384a4.571 4.571 0 01.243-.416 3.056 3.056 0 01.29-.353c.089-.087.225-.21.301-.276a3.181 3.181 0 01.356-.234 4.254 4.254 0 01.444-.214l.24-.1.387-.071.385-.073.319-.02.32-.022.349.033.34.033.28.068.28.066.16.085c.087.047.21.121.274.166a1.4 1.4 0 01.211.192 2.005 2.005 0 01.179.257l.084.145.051.218.051.218v.585l-.047.348c-.025.192-.07.451-.1.576l-.054.227-1.782-.009-1.779-.008-.482.023-.482.023-.055.354-.055.356v.8l.062.216.062.216.1.172.1.172.126.114.126.115.153.076a3.021 3.021 0 00.345.137l.192.061h1.119l.353-.069.351-.066.335-.11c.186-.062.39-.137.455-.169l.12-.058.017.017.017.017-.078.381c-.044.219-.087.449-.1.525l-.019.143-.391.087c-.223.049-.556.109-.743.135s-.511.064-.7.082zm.736-6.115l-.32.02a3.3 3.3 0 00-.447.054 2.456 2.456 0 00-.336.132l-.207.1-.212.21-.212.21-.1.192a4.579 4.579 0 00-.18.425 4.42 4.42 0 00-.084.248c.015.01.971.014 1.61.014h1.613l.033-.312.034-.312-.03-.188-.03-.187-.044-.085a1.177 1.177 0 00-.142-.19l-.1-.106-.179-.082-.176-.08-.245-.031z"/><path class="c" d="M33.199 21.309h.352l.4-.047c.22-.026.513-.069.651-.1s.361-.08.5-.118a1.742 1.742 0 00.271-.092 1.532 1.532 0 00.085-.323c.032-.165.073-.387.09-.492a.872.872 0 00.02-.2c-.006-.007-.03 0-.052.02a2.8 2.8 0 01-.349.147l-.308.114-.439.085-.439.085-.373-.013-.373-.013-.212-.073-.212-.073-.164-.143-.164-.143-.109-.2-.109-.2-.052-.265-.052-.265v-.687l.063-.416.063-.416.067-.224c.037-.123.078-.267.092-.32a3.441 3.441 0 01.13-.336 5.18 5.18 0 01.229-.453l.124-.213.152-.158.152-.158.161-.1.161-.1.207-.064a3.867 3.867 0 01.447-.1l.24-.037.352.018.352.018.416.083.416.083.169.063c.093.035.173.063.178.063a2.032 2.032 0 00.05-.264c.022-.145.062-.384.088-.531a1.344 1.344 0 00.034-.281 1.794 1.794 0 00-.278-.044 20.498 20.498 0 00-.876-.065l-.612-.035-.432.033-.432.033-.32.067-.32.067-.206.082a2.984 2.984 0 00-.369.182c-.09.055-.2.128-.253.163a4.393 4.393 0 00-.335.305l-.245.241-.137.2a5.169 5.169 0 00-.289.511l-.152.31-.117.336a9.501 9.501 0 00-.2.672l-.083.336-.03.3-.03.3v.8l.03.233.03.233.1.239.1.239.111.173.111.173.176.173.176.173.186.1.186.1.245.068a4.341 4.341 0 00.432.1 5.275 5.275 0 00.54.031z"/><path class="b" d="M38.03 21.309l-.188-.03a4.286 4.286 0 01-.408-.092l-.219-.062-.191-.116-.192-.116-.108-.126a2.071 2.071 0 01-.194-.285l-.087-.16-.046-.243-.047-.242v-.589l.05-.28.05-.278.1-.253a3.065 3.065 0 01.219-.4 2.869 2.869 0 01.3-.352l.192-.192.245-.156a1.841 1.841 0 01.274-.152.789.789 0 00.162-.064 4.35 4.35 0 01.51-.168l.377-.1h2.303l.055-.268.055-.268v-.5l-.1-.155-.1-.155-.192-.091-.185-.092-.278-.049-.278-.049-.432.018-.432.017-.48.082c-.266.046-.616.118-.78.162a2.731 2.731 0 01-.308.072 2.1 2.1 0 01.078-.361c.048-.187.108-.431.129-.535l.038-.183h.528l.379-.048c.211-.026.621-.062.921-.081l.529-.032.414.032.414.032.3.067.3.067.2.1.2.1.123.117.124.118.096.189.09.186v.8l-.09.465c-.056.3-.15.823-.178.976a50.64 50.64 0 00-.339 2.063l-.083.588-.018.455-.017.456h-1.179v-.2a4.921 4.921 0 01.047-.511 3.03 3.03 0 00.036-.328.864.864 0 00-.137.16 3.661 3.661 0 01-.285.324 2.633 2.633 0 01-.333.273 3.32 3.32 0 01-.352.2l-.176.083-.271.069-.272.069-.432.013zm1.247-3.691l-.256.06-.256.059-.206.1-.209.1-.194.192-.194.193-.1.209a3.024 3.024 0 00-.155.4l-.057.183.014.308.014.308.069.132a1.517 1.517 0 00.148.225l.079.095.144.074a1.824 1.824 0 00.315.118l.17.043.256-.014.255-.014.26-.082.26-.082.117-.08a.615.615 0 01.144-.079 1.374 1.374 0 00.217-.19l.192-.19.116-.2a1.639 1.639 0 00.117-.216c0-.009.04-.123.095-.262s.131-.378.176-.546.1-.419.124-.555l.043-.252-.047-.018-.051-.021h-1.6zm10.301 3.694h-.3c-.166 0-.392-.015-.5-.03a3.563 3.563 0 01-.4-.081 2.623 2.623 0 01-.394-.151l-.197-.098-.141-.115-.141-.118-.123-.164-.123-.166-.068-.17a4.3 4.3 0 01-.111-.314l-.042-.144-.036-.4-.037-.4.049-.5.048-.5.1-.382c.054-.212.136-.484.183-.607s.162-.387.258-.585l.172-.357.148-.211a4.722 4.722 0 01.342-.419l.193-.207.225-.166.224-.166.3-.148.3-.149.32-.08.319-.081.353-.032.352-.033.416.032.416.032.3.077c.175.043.33.087.358.1l.054.023.017-.106.059-.356v-.009l.053-.321c.054-.327.139-.853.191-1.183s.1-.692.117-.808l.033-.2h1.367v.024c0 .014-.036.2-.077.391s-.118.585-.175.885-.136.714-.181.96l-.163.881-.013.059a246.78 246.78 0 00-.364 2.015c-.045.266-.112.647-.148.848-.039.217-.1.619-.146.9s-.12.88-.172 1.328l-.1.815v.432h-1.251l.023-.22c.011-.115.034-.284.05-.376s.035-.23.044-.32l.016-.16-.018.048a2.952 2.952 0 01-.193.28l-.174.232-.165.145-.165.145-.192.1a2.28 2.28 0 01-.352.143 4.77 4.77 0 01-.448.092l-.288.047zm1.36-6.06h-.529l-.252.087-.251.087-.141.093a2.029 2.029 0 00-.3.23 2.971 2.971 0 00-.28.32 3.262 3.262 0 00-.229.366c-.052.1-.142.285-.2.409a1.486 1.486 0 00-.1.256 2.826 2.826 0 01-.081.295l-.08.256-.042.368-.051.368v.833l.044.207.044.208.1.187.1.187.132.107.131.107.156.067a1.764 1.764 0 00.318.1l.163.029.242-.013.233-.017.254-.081.254-.08.176-.117a2.75 2.75 0 00.283-.216 1.892 1.892 0 00.207-.243 2.743 2.743 0 00.188-.33 2.606 2.606 0 00.134-.352l.11-.406c.035-.132.1-.436.146-.672s.124-.663.177-.944.124-.685.161-.9c.045-.254.076-.431.085-.472l.018-.087-.093-.034a6.29 6.29 0 00-.394-.119l-.3-.085z"/><path class="c" d="M2.736 21.153h.777l.056-.344.133-.808.176-1.056a271.618 271.618 0 01.34-1.982 3.96 3.96 0 01.1-.448l.018-.018h4.18l.023.023.023.023-.036.185c-.02.1-.079.415-.131.7l-.199 1.05c-.055.3-.134.724-.177.944s-.128.681-.19 1.024-.113.642-.113.664v.04h1.561l.035-.2c.019-.11.05-.308.068-.44s.063-.413.1-.624l.159-.928a175 175 0 00.192-1.136l.178-1.056c.044-.256.122-.687.174-.96s.138-.733.191-1.024.134-.729.178-.976l.18-.992c.055-.299.124-.648.153-.776l.054-.232H9.358l-.021.152c-.012.084-.05.318-.085.52l-.141.8c-.041.238-.121.691-.173 1.008s-.12.736-.149.932l-.053.356-1.16.023-1.16.023-.972-.023a46.36 46.36 0 01-.978-.029 2.716 2.716 0 01.04-.276c.026-.149.075-.407.109-.575s.1-.5.143-.736.1-.533.113-.656.053-.328.08-.456.078-.4.113-.6.073-.388.084-.416l.019-.051H3.599l-.05.28c-.028.154-.064.374-.082.488l-.13.816-.177 1.1-.176 1.1c-.053.334-.141.853-.2 1.152s-.132.724-.174.944l-.176.928c-.055.29-.136.7-.179.912s-.091.456-.106.544-.065.342-.11.564-.082.427-.082.456v.052h.777zm8.605-.001h.688l.019-.051a.6.6 0 00.019-.162c0-.061.043-.381.1-.709s.14-.864.194-1.189l.177-1.056c.043-.256.121-.68.171-.944l.174-.912c.045-.238.132-.689.2-1s.122-.585.131-.6l.017-.028-.7.009-.7.009-.058.416c-.032.229-.1.682-.155 1.008s-.134.822-.179 1.1-.124.735-.175 1.008l-.174.928a235.344 235.344 0 01-.337 1.728c-.034.167-.071.336-.081.376l-.019.072zm16.095 0h.683l.02-.289c.011-.159.05-.479.086-.712s.11-.7.164-1.031.154-.891.223-1.237.146-.69.173-.764a.878.878 0 00.048-.179 1.7 1.7 0 01.114-.292 3.989 3.989 0 01.26-.464l.146-.216.2-.181.2-.181.241-.115.241-.115h.736l.181.054c.1.03.189.054.2.054s.019-.034.019-.076.036-.252.08-.468.08-.4.08-.413a.851.851 0 00-.232-.091 2.937 2.937 0 00-.392-.09l-.16-.02-.208.037a2.678 2.678 0 00-.378.1 2.153 2.153 0 00-.343.173 2.473 2.473 0 00-.329.264 3.751 3.751 0 00-.321.377l-.21.288-.046.064.028-.128c.015-.07.058-.3.095-.512s.075-.409.084-.44l.017-.056h-1.22v.077c0 .042-.036.3-.08.568l-.161 1c-.044.279-.124.771-.176 1.088s-.132.77-.176 1.008-.124.655-.177.928l-.193.992-.143.716a3.248 3.248 0 00-.045.248v.028zm16.213 0h.7v-.427l.08-.53c.044-.292.117-.753.162-1.026l.125-.768c.025-.15.086-.474.139-.72s.119-.513.146-.592a1 1 0 00.051-.185 2.157 2.157 0 01.132-.319l.132-.279.174-.231.174-.231.19-.143a2.753 2.753 0 01.374-.232l.184-.089h.8l.157.051.157.051.026-.016.027-.016v-.1a4.192 4.192 0 01.076-.464l.075-.362-.084-.033a4.356 4.356 0 00-.244-.083l-.16-.05h-.576l-.235.083-.235.082-.176.106-.176.106-.229.24-.229.24-.123.186a.9.9 0 01-.132.176c-.005-.006.032-.219.082-.474s.092-.5.093-.536v-.072h-1.184v.02c0 .011-.03.216-.065.456s-.109.7-.161 1.027-.138.851-.191 1.168-.132.77-.177 1.008l-.175.928c-.052.273-.137.712-.19.976l-.154.776-.059.3zm-30.955-7.806h.194l.154-.053.154-.053.137-.139.137-.139.072-.185.072-.185v-.544l-.064-.106-.064-.106-.111-.069-.111-.069h-.481l-.164.073-.164.073-.095.1-.1.1-.075.176-.075.176-.014.274-.014.274.07.136.069.136.134.061.134.061z"/></g></svg>