<svg width="55" height="35" viewBox="0 0 55 35" fill="none" xmlns="http://www.w3.org/2000/svg">
<rect width="55" height="35" rx="4" fill="white"/>
<g clip-path="url(#clip0_604_63465)">
<path d="M35.2243 11.6439L34.6931 11.1109C34.5613 10.9786 34.5613 10.7642 34.6931 10.632L35.224 10.0993C35.3561 9.96689 35.5701 9.96689 35.702 10.0993L36.2329 10.632C36.3647 10.7642 36.3647 10.9786 36.2329 11.1109L35.7017 11.6439C35.5699 11.7761 35.3562 11.7761 35.2243 11.6439Z" fill="#32BCAD"/>
<path fill-rule="evenodd" clip-rule="evenodd" d="M26.5618 12.9895C25.0347 12.9896 23.7967 14.2317 23.7967 15.7639V24.9398C23.7967 25.0958 23.6706 25.2223 23.5151 25.2223C23.3595 25.2223 23.2334 25.0958 23.2334 24.9398V15.7639C23.2334 13.9195 24.7237 12.4243 26.5621 12.4243L29.263 12.4284C31.0963 12.4321 32.5806 13.9241 32.5806 15.7635V17.7166C32.5806 19.561 31.0902 21.0562 29.2519 21.0562H25.436C25.2805 21.0562 25.1544 20.9297 25.1544 20.7736C25.1544 20.6175 25.2805 20.491 25.436 20.491H29.2519C30.7791 20.491 32.0173 19.2489 32.0173 17.7166V15.7635C32.0173 14.2359 30.7846 12.9967 29.262 12.9936C29.262 12.9936 29.2621 12.9936 29.262 12.9936L26.5618 12.9895C26.5618 12.9895 26.5619 12.9895 26.5618 12.9895Z" fill="#939598"/>
<path fill-rule="evenodd" clip-rule="evenodd" d="M32.7719 12.7057C32.7719 12.5496 32.898 12.4231 33.0536 12.4231H34.2249C35.0711 12.4231 35.757 13.1113 35.757 13.9603V20.8146C35.757 20.9707 35.6309 21.0972 35.4753 21.0972C35.3198 21.0972 35.1937 20.9707 35.1937 20.8146V13.9603C35.1937 13.4234 34.76 12.9883 34.2249 12.9883H33.0536C32.898 12.9883 32.7719 12.8618 32.7719 12.7057Z" fill="#939598"/>
<path fill-rule="evenodd" clip-rule="evenodd" d="M37.441 12.6996C37.441 12.5435 37.5671 12.417 37.7226 12.417H38.8843C39.5567 12.417 40.2015 12.685 40.6768 13.1618L43.3939 15.8879C43.6359 16.1307 44.0282 16.1307 44.2702 15.8879L46.9774 13.1718C47.4528 12.695 48.0975 12.427 48.7699 12.427H49.7144C49.8699 12.427 49.996 12.5535 49.996 12.7096C49.996 12.8656 49.8699 12.9921 49.7144 12.9921H48.7699C48.2469 12.9921 47.7455 13.2006 47.3758 13.5715L44.6685 16.2875C44.2066 16.751 43.4576 16.751 42.9956 16.2875C42.9956 16.2875 42.9956 16.2875 42.9956 16.2875L40.2785 13.5615C39.9088 13.1906 39.4073 12.9822 38.8843 12.9822H37.7226C37.5671 12.9822 37.441 12.8556 37.441 12.6996Z" fill="#939598"/>
<path fill-rule="evenodd" clip-rule="evenodd" d="M44.2702 17.5663C44.0282 17.3235 43.6359 17.3235 43.394 17.5663L40.6768 20.2924C40.2014 20.7692 39.5567 21.0372 38.8843 21.0372H37.7226C37.5671 21.0372 37.441 20.9107 37.441 20.7546C37.441 20.5986 37.5671 20.4721 37.7226 20.4721H38.8843C39.4073 20.4721 39.9088 20.2636 40.2785 19.8927L42.9956 17.1667C42.9956 17.1667 42.9956 17.1667 42.9956 17.1667C43.4575 16.7032 44.2066 16.7032 44.6685 17.1667L47.3758 19.8827C47.7455 20.2537 48.2469 20.4621 48.7699 20.4621H49.7144C49.8699 20.4621 49.996 20.5886 49.996 20.7447C49.996 20.9007 49.8699 21.0272 49.7144 21.0272H48.7699C48.0975 21.0272 47.4528 20.7593 46.9775 20.2824L44.2702 17.5663Z" fill="#939598"/>
<path d="M16.589 22.4963C16.006 22.4963 15.4576 22.2685 15.0453 21.8551L12.8164 19.6189C12.6599 19.4614 12.3871 19.4619 12.2307 19.6189L9.99367 21.8633C9.58137 22.2767 9.03301 22.5045 8.44999 22.5045H8.01074L10.8337 25.3366C11.7153 26.2211 13.1448 26.2211 14.0264 25.3366L16.8574 22.4963H16.589Z" fill="#32BCAD"/>
<path d="M8.45036 14.5863C9.03337 14.5863 9.58174 14.8141 9.99403 15.2275L12.2311 17.4723C12.3922 17.634 12.6552 17.6346 12.8168 17.4721L15.0457 15.2357C15.458 14.8222 16.0063 14.5945 16.5893 14.5945H16.8578L14.0269 11.7542C13.1451 10.8697 11.7157 10.8697 10.8341 11.7542L8.01123 14.5863L8.45036 14.5863Z" fill="#32BCAD"/>
<path d="M19.1993 16.9439L17.4885 15.2275C17.4509 15.2427 17.4101 15.2521 17.367 15.2521H16.5892C16.187 15.2521 15.7934 15.4158 15.5092 15.7011L13.2804 17.9372C13.0718 18.1465 12.7977 18.2512 12.5239 18.2512C12.2498 18.2512 11.9759 18.1465 11.7674 17.9374L9.53015 15.6929C9.24599 15.4075 8.85233 15.2439 8.45019 15.2439H7.49375C7.45295 15.2439 7.41483 15.2343 7.37884 15.2207L5.66125 16.9439C4.77958 17.8285 4.77958 19.2625 5.66125 20.147L7.37877 21.8702C7.41483 21.8566 7.45295 21.8469 7.49375 21.8469H8.45019C8.85233 21.8469 9.24599 21.6834 9.53015 21.3981L11.7672 19.1537C12.1715 18.7484 12.8764 18.7482 13.2804 19.1539L15.5092 21.3899C15.7934 21.6752 16.187 21.8388 16.5892 21.8388H17.367C17.4101 21.8388 17.4509 21.8483 17.4885 21.8634L19.1993 20.147C20.0809 19.2625 20.0809 17.8285 19.1993 16.9439Z" fill="#32BCAD"/>
<path d="M25.8371 24.1601C25.7108 24.1601 25.5639 24.1905 25.4185 24.2242V24.7833C25.5192 24.8202 25.6342 24.838 25.7444 24.838C26.0239 24.838 26.1564 24.7434 26.1564 24.4964C26.1564 24.2642 26.0479 24.1601 25.8371 24.1601ZM25.3242 25.1985V24.0927H25.4009L25.4089 24.1408C25.5383 24.1104 25.7171 24.0703 25.8449 24.0703C25.9489 24.0703 26.0478 24.0862 26.1308 24.1536C26.2268 24.2322 26.2571 24.3587 26.2571 24.4964C26.2571 24.6409 26.2091 24.777 26.0781 24.8522C25.9871 24.9035 25.8642 24.9244 25.7539 24.9244C25.6405 24.9244 25.5319 24.9067 25.4185 24.8731V25.1985H25.3242Z" fill="#939598"/>
<path d="M26.9589 24.1568C26.6794 24.1568 26.5548 24.245 26.5548 24.4918C26.5548 24.7305 26.6778 24.838 26.9589 24.838C27.2368 24.838 27.3614 24.7514 27.3614 24.5046C27.3614 24.2658 27.2385 24.1568 26.9589 24.1568ZM27.3183 24.838C27.2256 24.9052 27.1011 24.9244 26.9589 24.9244C26.8136 24.9244 26.6889 24.9036 26.5979 24.838C26.4957 24.7659 26.4541 24.6472 26.4541 24.4983C26.4541 24.3507 26.4957 24.2307 26.5979 24.1568C26.6889 24.0912 26.8136 24.0703 26.9589 24.0703C27.1026 24.0703 27.2256 24.0912 27.3183 24.1568C27.4222 24.2307 27.462 24.3507 27.462 24.4965C27.462 24.6457 27.4205 24.7659 27.3183 24.838Z" fill="#939598"/>
<path d="M28.6415 24.9021L28.3301 24.2308H28.3236L28.017 24.9021H27.9323L27.6001 24.0928H27.7039L27.9803 24.7722H27.9867L28.2869 24.0928H28.3731L28.6815 24.7722H28.6879L28.9578 24.0928H29.0584L28.7262 24.9021H28.6415Z" fill="#939598"/>
<path d="M29.6606 24.1552C29.4019 24.1552 29.314 24.2705 29.298 24.4373H30.0233C30.0153 24.2531 29.921 24.1552 29.6606 24.1552ZM29.6575 24.9244C29.5025 24.9244 29.4019 24.902 29.3221 24.8346C29.2278 24.7529 29.1958 24.6344 29.1958 24.4982C29.1958 24.3684 29.239 24.2306 29.346 24.152C29.4354 24.0896 29.5457 24.0703 29.6606 24.0703C29.7645 24.0703 29.8843 24.0815 29.9833 24.1489C30.0999 24.2273 30.1223 24.3653 30.1223 24.5222H29.2949C29.298 24.6888 29.3524 24.8364 29.6654 24.8364C29.814 24.8364 29.9529 24.8122 30.0823 24.7898V24.8747C29.9481 24.8989 29.7996 24.9244 29.6575 24.9244Z" fill="#939598"/>
<path d="M30.3931 24.902V24.0927H30.4697L30.4778 24.1409C30.6487 24.0976 30.7285 24.0703 30.8787 24.0703H30.8899V24.1601H30.8675C30.7413 24.1601 30.6647 24.1776 30.4874 24.2242V24.902H30.3931Z" fill="#939598"/>
<path d="M31.437 24.1552C31.1783 24.1552 31.0904 24.2705 31.0744 24.4373H31.7996C31.7917 24.2531 31.6973 24.1552 31.437 24.1552ZM31.4339 24.9244C31.2788 24.9244 31.1783 24.902 31.0984 24.8346C31.0041 24.7529 30.9722 24.6344 30.9722 24.4982C30.9722 24.3684 31.0154 24.2306 31.1224 24.152C31.2118 24.0896 31.322 24.0703 31.437 24.0703C31.5409 24.0703 31.6607 24.0815 31.7596 24.1489C31.8763 24.2273 31.8987 24.3653 31.8987 24.5222H31.0713C31.0744 24.6888 31.1287 24.8364 31.4417 24.8364C31.5903 24.8364 31.7292 24.8122 31.8587 24.7898V24.8747C31.7245 24.8989 31.5759 24.9244 31.4339 24.9244Z" fill="#939598"/>
<path d="M32.9309 24.2109C32.8303 24.174 32.7153 24.1563 32.6051 24.1563C32.3256 24.1563 32.1929 24.251 32.1929 24.4977C32.1929 24.7316 32.3015 24.8341 32.5123 24.8341C32.6386 24.8341 32.7855 24.8037 32.9309 24.7716V24.2109ZM32.9485 24.9015L32.9405 24.8534C32.8111 24.8838 32.6322 24.924 32.5044 24.924C32.4007 24.924 32.3015 24.9096 32.2185 24.8406C32.1227 24.7621 32.0923 24.6355 32.0923 24.4977C32.0923 24.3535 32.1402 24.2172 32.2712 24.1435C32.3622 24.0907 32.4852 24.0698 32.597 24.0698C32.7089 24.0698 32.8175 24.0891 32.9309 24.1211V23.751H33.0252V24.9015H32.9485Z" fill="#939598"/>
<path d="M34.4074 24.1597C34.2811 24.1597 34.1342 24.1901 33.9888 24.2238V24.7814C34.0911 24.8198 34.2045 24.8376 34.3147 24.8376C34.5942 24.8376 34.7267 24.743 34.7267 24.496C34.7267 24.2638 34.6182 24.1597 34.4074 24.1597ZM34.6485 24.8518C34.5575 24.9031 34.4345 24.924 34.3243 24.924C34.2045 24.924 34.0847 24.9031 33.9633 24.8631L33.9585 24.9016H33.8945V23.751H33.9888V24.1371C34.1182 24.1084 34.2923 24.0699 34.4153 24.0699C34.5192 24.0699 34.6182 24.0858 34.7011 24.1532C34.7971 24.2318 34.8274 24.3583 34.8274 24.496C34.8274 24.6405 34.7794 24.7766 34.6485 24.8518Z" fill="#939598"/>
<path d="M34.9522 25.2129V25.1249C34.9985 25.1296 35.0417 25.1329 35.072 25.1329C35.1887 25.1329 35.2589 25.0992 35.3244 24.9661L35.3548 24.9021L34.9331 24.0928H35.0417L35.4028 24.7914H35.4091L35.7525 24.0928H35.8595L35.4059 25.0015C35.3228 25.1666 35.2334 25.2209 35.0688 25.2209C35.0321 25.2209 34.9922 25.2178 34.9522 25.2129Z" fill="#939598"/>
<path d="M37.1585 24.4399H36.8455V24.7236H37.16C37.3757 24.7236 37.4572 24.6994 37.4572 24.5809C37.4572 24.4542 37.3455 24.4399 37.1585 24.4399ZM37.1011 23.98H36.8455V24.2683H37.1026C37.3151 24.2683 37.3997 24.2428 37.3997 24.1226C37.3997 23.9945 37.2927 23.98 37.1011 23.98ZM37.5866 24.8246C37.4715 24.8983 37.3326 24.9014 37.0787 24.9014H36.6011V23.8037H37.0675C37.2863 23.8037 37.4204 23.8069 37.5323 23.8742C37.6122 23.9223 37.6441 23.996 37.6441 24.0922C37.6441 24.2074 37.5962 24.2845 37.4715 24.3358V24.3421C37.6122 24.3743 37.7032 24.4464 37.7032 24.6018C37.7032 24.7075 37.6649 24.7764 37.5866 24.8246Z" fill="#939598"/>
<path d="M38.6588 24.5623C38.5644 24.5542 38.4687 24.5495 38.368 24.5495C38.2035 24.5495 38.1459 24.5832 38.1459 24.6584C38.1459 24.7289 38.1939 24.7674 38.32 24.7674C38.4255 24.7674 38.5517 24.7435 38.6588 24.7193V24.5623ZM38.7066 24.902L38.7002 24.8539C38.5628 24.8877 38.4032 24.9245 38.2626 24.9245C38.1762 24.9245 38.0837 24.9132 38.0181 24.8651C37.9576 24.8219 37.9287 24.7514 37.9287 24.6696C37.9287 24.5782 37.9687 24.4933 38.0644 24.4501C38.1491 24.4101 38.2625 24.4069 38.3664 24.4069C38.451 24.4069 38.5644 24.4116 38.6587 24.4181V24.4036C38.6587 24.277 38.5756 24.2354 38.3488 24.2354C38.2609 24.2354 38.1539 24.2401 38.0517 24.2497V24.0863C38.1651 24.0768 38.2929 24.0703 38.3984 24.0703C38.5388 24.0703 38.6843 24.0816 38.7737 24.1456C38.8663 24.2114 38.884 24.3028 38.884 24.4228V24.902L38.7066 24.902Z" fill="#939598"/>
<path d="M39.9373 24.902V24.4548C39.9373 24.3075 39.8623 24.2546 39.7281 24.2546C39.6291 24.2546 39.5045 24.2802 39.399 24.3059V24.902H39.1738V24.0927H39.3575L39.3655 24.144C39.5076 24.1072 39.6658 24.0703 39.7968 24.0703C39.8958 24.0703 39.9965 24.0846 40.0731 24.1536C40.1369 24.2114 40.161 24.2914 40.161 24.4068V24.902H39.9373Z" fill="#939598"/>
<path d="M40.7973 24.9244C40.6934 24.9244 40.5799 24.91 40.4969 24.8395C40.3979 24.7593 40.3691 24.6328 40.3691 24.4964C40.3691 24.3683 40.4107 24.2289 40.5337 24.1504C40.6343 24.0846 40.7589 24.0703 40.8883 24.0703C40.9809 24.0703 41.072 24.0768 41.1726 24.0862V24.2593C41.091 24.2514 40.9936 24.2449 40.9154 24.2449C40.7013 24.2449 40.6008 24.3123 40.6008 24.4982C40.6008 24.6729 40.6758 24.7481 40.8515 24.7481C40.9537 24.7481 41.0736 24.7289 41.1902 24.7065V24.8731C41.0639 24.8989 40.9266 24.9244 40.7973 24.9244Z" fill="#939598"/>
<path d="M41.8554 24.2401C41.6413 24.2401 41.5471 24.3074 41.5471 24.4917C41.5471 24.6761 41.6397 24.7546 41.8554 24.7546C42.0678 24.7546 42.1604 24.6888 42.1604 24.5045C42.1604 24.3202 42.0694 24.2401 41.8554 24.2401ZM42.2419 24.8395C42.1429 24.9067 42.0135 24.9244 41.8554 24.9244C41.694 24.9244 41.5647 24.9052 41.4673 24.8395C41.3554 24.7658 41.3154 24.644 41.3154 24.4982C41.3154 24.3523 41.3554 24.2289 41.4673 24.1552C41.5647 24.0895 41.694 24.0703 41.8554 24.0703C42.0152 24.0703 42.1429 24.0895 42.2419 24.1552C42.3537 24.2289 42.3921 24.3523 42.3921 24.4965C42.3921 24.6424 42.3521 24.7658 42.2419 24.8395Z" fill="#939598"/>
<path d="M43.6922 24.9238C43.5565 24.9238 43.4096 24.9014 43.2993 24.81C43.1683 24.701 43.1284 24.5328 43.1284 24.3516C43.1284 24.1899 43.1795 23.9975 43.3504 23.8854C43.483 23.7989 43.6475 23.7812 43.8136 23.7812C43.9351 23.7812 44.0596 23.7893 44.1954 23.8005V23.9975C44.0788 23.9879 43.9351 23.9799 43.8233 23.9799C43.5117 23.9799 43.3792 24.0986 43.3792 24.3516C43.3792 24.6098 43.5021 24.7252 43.7322 24.7252C43.8823 24.7252 44.05 24.6947 44.2193 24.6593V24.8548C44.05 24.8886 43.8727 24.9238 43.6922 24.9238Z" fill="#939598"/>
<path d="M44.8813 24.2145C44.6943 24.2145 44.6224 24.2819 44.6081 24.4053H45.1512C45.1448 24.2739 45.0681 24.2145 44.8813 24.2145ZM44.8476 24.9244C44.7151 24.9244 44.5953 24.9085 44.5059 24.8346C44.41 24.7546 44.3765 24.6344 44.3765 24.4965C44.3765 24.3731 44.4165 24.2354 44.5283 24.1552C44.6272 24.0847 44.7535 24.0703 44.8813 24.0703C44.9963 24.0703 45.1321 24.0831 45.231 24.152C45.3605 24.2434 45.3716 24.3845 45.3732 24.5511H44.6065C44.6113 24.6745 44.6768 24.7546 44.9036 24.7546C45.0441 24.7546 45.2006 24.7338 45.3333 24.713V24.8716C45.1783 24.8973 45.009 24.9244 44.8476 24.9244Z" fill="#939598"/>
<path d="M46.3753 24.902V24.4548C46.3753 24.3075 46.3003 24.2546 46.1661 24.2546C46.067 24.2546 45.9425 24.2802 45.837 24.3059V24.902H45.6118V24.0927H45.7955L45.8035 24.144C45.9456 24.1072 46.1038 24.0703 46.2348 24.0703C46.3338 24.0703 46.4345 24.0846 46.5111 24.1536C46.5749 24.2114 46.599 24.2914 46.599 24.4068V24.902H46.3753Z" fill="#939598"/>
<path d="M47.2399 24.9246C47.1313 24.9246 47.0322 24.8941 46.9779 24.8092C46.938 24.7515 46.9188 24.6731 46.9188 24.5641V24.2611H46.7559V24.0929H46.9188L46.9428 23.8477H47.1424V24.0929H47.4603V24.2611H47.1424V24.5208C47.1424 24.5833 47.1472 24.6361 47.1648 24.6747C47.1887 24.7291 47.2414 24.7499 47.3117 24.7499C47.3644 24.7499 47.4284 24.7419 47.473 24.734V24.8957C47.3996 24.9103 47.3148 24.9246 47.2399 24.9246Z" fill="#939598"/>
<path d="M47.6797 24.902V24.0927H47.8634L47.8714 24.144C48.02 24.1023 48.1302 24.0703 48.2708 24.0703C48.2771 24.0703 48.2867 24.0703 48.2994 24.0718V24.2642C48.2739 24.2627 48.2435 24.2627 48.2212 24.2627C48.1109 24.2627 48.0279 24.2754 47.9049 24.3044V24.902L47.6797 24.902Z" fill="#939598"/>
<path d="M49.1187 24.5623C49.0244 24.5542 48.9286 24.5495 48.828 24.5495C48.6635 24.5495 48.6059 24.5832 48.6059 24.6584C48.6059 24.7289 48.6539 24.7674 48.78 24.7674C48.8855 24.7674 49.0116 24.7435 49.1187 24.7193V24.5623ZM49.1666 24.902L49.1602 24.8539C49.0228 24.8877 48.8631 24.9245 48.7225 24.9245C48.6363 24.9245 48.5436 24.9132 48.4781 24.8651C48.4175 24.8219 48.3887 24.7514 48.3887 24.6696C48.3887 24.5782 48.4287 24.4933 48.5245 24.4501C48.6091 24.4101 48.7225 24.4069 48.8264 24.4069C48.9111 24.4069 49.0244 24.4116 49.1187 24.4181V24.4036C49.1187 24.277 49.0356 24.2354 48.8088 24.2354C48.721 24.2354 48.6139 24.2401 48.5117 24.2497V24.0863C48.625 24.0768 48.7529 24.0703 48.8584 24.0703C48.9989 24.0703 49.1443 24.0816 49.2337 24.1456C49.3263 24.2114 49.3439 24.3028 49.3439 24.4228V24.902L49.1666 24.902Z" fill="#939598"/>
<path d="M49.6333 23.751H49.8585V24.9015H49.6333V23.751Z" fill="#939598"/>
</g>
<defs>
<clipPath id="clip0_604_63465">
<rect width="45" height="16" fill="white" transform="translate(5 10)"/>
</clipPath>
</defs>
</svg>
