<svg xmlns="http://www.w3.org/2000/svg" width="112" height="36"><g fill="#fff" stroke="#b5b5b5"><rect width="112" height="36" rx="4" stroke="none"/><rect x=".5" y=".5" width="111" height="35" rx="3.5" fill="none"/></g><path d="M16.77 5h.763a5.618 5.618 0 013.051 1.172 5.7 5.7 0 012.065 3.293h2.009v13.942H9.813V9.464h1.833a5.882 5.882 0 01.967-2.158A5.634 5.634 0 0116.77 5zm-1.311 2.809a3.427 3.427 0 00-1.358 1.609c2.037 0 4.074.009 6.1 0a3.376 3.376 0 00-1.357-1.609 3.258 3.258 0 00-3.385 0zm5.869 3.291c-.186.27-.381.539-.577.809-2.837-.009-5.683 0-8.52 0v9.078h10.027c-.009-2.428.019-4.846-.009-7.273.335-.437.679-.874 1-1.311a60.16 60.16 0 00-1.925-1.3zm8.11-1.87a10.234 10.234 0 014.046-.3 5.241 5.241 0 013.423 1.544 3.952 3.952 0 01.969 2.478c-1.014.037-2.028.084-3.041.121a2.538 2.538 0 00-.7-1.377 2.941 2.941 0 00-1.86-.567 3.852 3.852 0 00-2.288.512.954.954 0 00-.411 1.079 1.483 1.483 0 00.93.818c1.228.474 2.539.642 3.8 1a6.612 6.612 0 012.87 1.362 3.487 3.487 0 011.1 2.39 3.8 3.8 0 01-1.125 3.032 6.277 6.277 0 01-4.234 1.478 7.749 7.749 0 01-4.957-1.125 5.057 5.057 0 01-1.879-3.5c.986-.056 1.953-.2 2.939-.242a3.96 3.96 0 00.809 1.674 3.362 3.362 0 002.53.893 3.231 3.231 0 002.474-.856 1.414 1.414 0 00.316-1.451 1.882 1.882 0 00-1.228-.9 36.771 36.771 0 01-5.078-1.442 4.049 4.049 0 01-1.814-1.628 3.255 3.255 0 01.093-3.3 4.147 4.147 0 012.316-1.693zm9.887-.121c.967-.009 1.935-.009 2.911 0v2.374c-.967.009-1.935 0-2.9 0-.019-.791-.009-1.581-.009-2.372zm4.483 1.758c.967-.5 1.925-1.014 2.9-1.507.009 1.153 0 2.3 0 3.451h1.953v2.076H46.71V19.6c.019.335-.009.763.335.939.521.26 1.1-.009 1.609-.14.084.67.158 1.349.251 2.018a5.57 5.57 0 01-3.841.084 1.764 1.764 0 01-1.107-1.274 14.482 14.482 0 01-.158-2.837v-3.503h-1.3c-.009-.688.019-1.377-.028-2.065.446-.019.884-.019 1.33-.009.009-.651.009-1.293.009-1.944zm8.6 1.786a5.529 5.529 0 014.626 1.247 5.877 5.877 0 011.46 4.548c-2.4 0-4.809-.009-7.208 0a2.687 2.687 0 00.679 1.73 2.327 2.327 0 002.632.456 2.082 2.082 0 00.893-1.181c.958.14 1.907.3 2.865.428a4.32 4.32 0 01-2.939 2.689 7.25 7.25 0 01-4.353-.223 4.353 4.353 0 01-2.567-3.134 6.437 6.437 0 01.372-4.027 4.7 4.7 0 013.544-2.53zm-.419 2.5a2.367 2.367 0 00-.66 1.693c1.442 0 2.883.009 4.316 0a2.736 2.736 0 00-.558-1.572 2.2 2.2 0 00-3.094-.117zm-12.664-2.34a74.34 74.34 0 012.911 0v9.747c-.958.056-1.925.019-2.893.028-.037-.53-.019-1.051-.019-1.581v-8.194zM10.715 25.5a2.8 2.8 0 012.242.047 1.635 1.635 0 01.781 1.274l-1 .056c-.13-.233-.2-.539-.474-.642a1.416 1.416 0 00-1.051.028.417.417 0 00-.26.5 1.014 1.014 0 00.66.391 4.539 4.539 0 011.823.7 1.531 1.531 0 01-.344 2.4 3.107 3.107 0 01-2.167.112 1.766 1.766 0 01-1.149-1.49v-.112c.316-.028.632-.065.958-.093a1.71 1.71 0 00.456.772 1.382 1.382 0 001.135.121.65.65 0 00.474-.818c-.167-.3-.549-.344-.846-.437a2.779 2.779 0 01-1.8-.893 1.319 1.319 0 01.562-1.916zm29.056.028a1.978 1.978 0 011.609-.121l-.112.67a2.054 2.054 0 00-.716.019c-.149.177-.121.428-.158.642.251.009.5.009.744.009v.772h-.725c0 .958 0 1.925-.009 2.893h-.958c-.009-.967 0-1.925-.009-2.893h-.539v-.753c.177-.009.353-.028.53-.037.037-.402-.038-.913.348-1.202zm12.724-.2a2.587 2.587 0 012.26.614 2.817 2.817 0 01.688 2.3 2.4 2.4 0 01-.867 1.768 2.706 2.706 0 01-2.214.419 2.159 2.159 0 01-1.535-1.209 3.49 3.49 0 01-.158-2.176 2.211 2.211 0 011.823-1.711zm.074.912a1.354 1.354 0 00-.9 1.125 2.359 2.359 0 00.288 1.739 1.349 1.349 0 001.814.288 1.589 1.589 0 00.6-1.218 2.233 2.233 0 00-.316-1.507 1.351 1.351 0 00-1.485-.423zm-23.513-.856h.986v.893h-.986zm31.168 0h.986v5.026h-.986v-5.022zm1.953 0h.986v.893h-.987zm11.673 0c.8 0 1.609-.009 2.409.009a1.6 1.6 0 011.181.381 1.207 1.207 0 01.26 1.4 1.658 1.658 0 01-.512.567 1.637 1.637 0 01.7.558 1.44 1.44 0 01-.465 1.87 2.047 2.047 0 01-1.079.242c-.837.019-1.674.009-2.5.009 0-1.674.009-3.358.009-5.032zm1.023.846v1.135a8.753 8.753 0 001.563-.056.549.549 0 00.028-1.032 11.319 11.319 0 00-1.59-.047zm0 1.99v1.311c.493-.009 1 .019 1.488-.009a.674.674 0 00.549-.27.664.664 0 00-.307-.958 8.952 8.952 0 00-1.73-.074zm11.366-2.837h.967v.893h-.977c.011-.293.011-.591.011-.888zm-55.2.679c.326-.2.66-.4 1-.586v1.265l.67.028v.772h-.67c.019.67-.047 1.349.037 2.009.121.233.419.056.623.065l.084.753a1.732 1.732 0 01-1.4-.047.731.731 0 01-.3-.586 28.675 28.675 0 01-.047-2.2c-.14 0-.279 0-.419-.009v-.791h.419v-.679zm-16.333 1.167a1.714 1.714 0 012.632.149 2.686 2.686 0 01.326 1.5c-.809 0-1.628-.009-2.437.009.065.381.242.818.67.874.372.1.632-.2.781-.5.326.056.642.1.967.167a1.959 1.959 0 01-.614.809 2.053 2.053 0 01-1.683.177 1.589 1.589 0 01-1.051-1.3 2.277 2.277 0 01.409-1.879zm.828.381c-.2.158-.214.428-.288.66.493.009 1 .009 1.488 0a1.325 1.325 0 00-.288-.66.683.683 0 00-.911 0zm2.976-.381a1.972 1.972 0 012.288-.344 1.791 1.791 0 01.707.958c-.316.065-.632.112-.939.167a1.848 1.848 0 00-.27-.428.737.737 0 00-1.125.381 2.1 2.1 0 00.056 1.33.743.743 0 001.07.279 1.642 1.642 0 00.307-.558c.316.047.632.1.949.158a2.027 2.027 0 01-.484.9 1.917 1.917 0 01-1.739.363 1.611 1.611 0 01-1.2-1.349 2.278 2.278 0 01.381-1.86zm9.134-.512a1.567 1.567 0 01.893.121c-.093.279-.2.558-.288.846-.233-.047-.484-.186-.716-.065-.251.112-.307.419-.353.67a20.652 20.652 0 00-.047 2.149h-.967v-3.646l.893-.028c.009.158.009.316.019.484.158-.214.307-.456.567-.53zm15.365.009a1.922 1.922 0 11-1.051 3.079 2.093 2.093 0 01.2-2.641 1.762 1.762 0 01.846-.437zm.167.809a1.01 1.01 0 00-.577.986 1.075 1.075 0 00.558 1.107.848.848 0 001.135-.586 1.52 1.52 0 00-.2-1.284.82.82 0 00-.921-.223zm4.3-.791a1.351 1.351 0 01.967.1c-.093.279-.2.567-.288.846-.233-.056-.474-.2-.707-.084a.863.863 0 00-.372.735c-.056.688-.019 1.386-.037 2.083h-.967c-.009-1.218 0-2.428 0-3.646h.893v.446a1.585 1.585 0 01.512-.484zm10.315-.019a1.51 1.51 0 011.256.233 1.281 1.281 0 01.353 1v2.452h-.958c-.009-.725 0-1.442 0-2.167a.849.849 0 00-.251-.707.7.7 0 00-.9.14 1.138 1.138 0 00-.214.753c-.009.66 0 1.321-.009 1.981h-.967c-.009-1.209 0-2.428 0-3.646l.893-.028c0 .158.009.326.009.484a2 2 0 01.785-.493zm7.906 0a1.481 1.481 0 011.3.279 1.468 1.468 0 01.307 1.051c0 .791 0 1.572-.009 2.362h-.977c-.009-.781.019-1.572-.019-2.353a.582.582 0 00-.456-.623.767.767 0 00-.874.716c-.056.753-.009 1.507-.028 2.26h-.958c-.056-1.209-.009-2.428-.028-3.646.3-.019.6-.028.911-.028 0 .158 0 .316.009.484a2.146 2.146 0 01.818-.5zm2.539.567a1.719 1.719 0 012.651.019 2.729 2.729 0 01.391 1.553c-.818.019-1.637 0-2.455.009a1.48 1.48 0 00.288.679.718.718 0 00.846.121 2.125 2.125 0 00.335-.428c.316.056.632.112.949.177a1.825 1.825 0 01-.744.884 2.109 2.109 0 01-1.711.037 1.592 1.592 0 01-.893-1.246 2.368 2.368 0 01.344-1.8zm.93.279c-.223.158-.251.456-.326.688.493.009.986.009 1.488 0a2.355 2.355 0 00-.167-.512.693.693 0 00-.998-.173zm13.552-.493a1.619 1.619 0 011.172-.391 2.1 2.1 0 011.209.26 1.681 1.681 0 01.493.7c-.3.065-.6.112-.9.167-.149-.2-.335-.446-.623-.428-.27-.009-.809-.019-.725.391.623.419 1.488.3 2.083.8a1.052 1.052 0 01-.084 1.5 2.245 2.245 0 01-1.925.363 1.559 1.559 0 01-1.163-1.07c.326-.047.642-.093.967-.149.121.2.223.456.484.521a1.009 1.009 0 00.958-.158c.056-.14.074-.363-.112-.4a7.563 7.563 0 01-1.749-.577 1.016 1.016 0 01-.084-1.525zm3.534-.326h.958c.009 1.218 0 2.446 0 3.665h-.967c0-1.218 0-2.446.009-3.665zm1.665 0h.884c0 .158.009.316.009.484a1.948 1.948 0 01.781-.5 1.474 1.474 0 011.311.27 1.306 1.306 0 01.307.967v2.447h-.967c-.009-.725 0-1.442 0-2.167a.94.94 0 00-.2-.67.685.685 0 00-.911.056 1.035 1.035 0 00-.26.8c-.009.66 0 1.321-.009 1.981h-.967c.019-1.228.009-2.446.019-3.665zm4.278.493a1.717 1.717 0 012.641.1 2.738 2.738 0 01.353 1.507c-.818.009-1.637 0-2.446.009.056.391.27.846.725.884.363.084.6-.242.735-.512l.958.167a1.7 1.7 0 01-.939.977 2.118 2.118 0 01-1.711-.158 1.788 1.788 0 01-.735-1.414 2.179 2.179 0 01.419-1.563zm.828.381a1.321 1.321 0 00-.27.642c.493.009.986.009 1.488 0-.074-.233-.093-.512-.3-.67a.666.666 0 00-.921.031zm3.144-.753a2.7 2.7 0 011.814-.084 1.333 1.333 0 01.8.856c-.3.065-.6.112-.9.167-.233-.493-.809-.484-1.265-.353-.037.074-.112.214-.14.279.651.446 1.544.326 2.149.846a1.073 1.073 0 01-.074 1.479 2.206 2.206 0 01-1.907.381 1.562 1.562 0 01-1.191-1.079l.958-.14a.914.914 0 001.339.446c.158-.074.158-.27.121-.409-.623-.326-1.414-.27-1.972-.725a1.061 1.061 0 01.27-1.665zm3.683.047a2.622 2.622 0 011.8-.158 1.315 1.315 0 01.884.884l-.893.167c-.149-.177-.3-.409-.558-.419-.279-.019-.632-.037-.818.2a.256.256 0 00.2.3 9.579 9.579 0 011.767.577.994.994 0 01.27 1.284 1.424 1.424 0 01-1.144.7 2.231 2.231 0 01-1.682-.355 1.933 1.933 0 01-.493-.744c.326-.047.651-.1.967-.149.121.2.214.446.465.512a1.03 1.03 0 00.958-.14c.074-.121.1-.344-.056-.4a7.414 7.414 0 01-1.851-.651 1.027 1.027 0 01.177-1.609zm-77.8-.177c.326 0 .651.009.967.028v2.121c.019.251 0 .577.223.744a.729.729 0 001.1-.549c.084-.772.019-1.553.047-2.335.326-.009.651-.009.967.009v3.659h-.884l-.028-.484a1.5 1.5 0 01-2.037.279 1.421 1.421 0 01-.363-1.116c.009-.791 0-1.572.009-2.353zm7.013.037a4.711 4.711 0 01.958 0c.065 1.209.019 2.428.019 3.646h-.974c-.009-1.228 0-2.437-.009-3.646zm3.981-.009c.344-.009.688-.019 1.032-.019.3.846.577 1.711.874 2.558.288-.837.558-1.683.837-2.53.344-.009.679-.028 1.023-.028-.474 1.321-.977 2.632-1.442 3.962a2.439 2.439 0 01-.4.791 1.482 1.482 0 01-.688.381h-.651a2.28 2.28 0 01-.251-.019c-.028-.26-.065-.512-.1-.763a2.107 2.107 0 00.763-.065.685.685 0 00.307-.846c-.437-1.153-.884-2.288-1.3-3.423zm29.149-.028c.326 0 .651.009.986.028v3.639h-.986a248.747 248.747 0 010-3.665zm16.407.028h.977c-.001.747-.025 1.482-.001 2.229.019.223.009.5.223.642a.731.731 0 001.107-.539c.074-.772.009-1.563.037-2.335.326-.009.651-.009.967.009v3.643h-.893c0-.158-.009-.326-.009-.484a2.087 2.087 0 01-.791.5 1.329 1.329 0 01-1.358-.335A1.7 1.7 0 0178.594 29v-2.226z"/><path d="M92.09 9.111h2.883v7.115q1.618-1.66 3.237-3.311c.112-.149.316-.093.474-.112 1.06.009 2.121 0 3.181 0-1.218 1.209-2.483 2.372-3.711 3.581q1.981 3.083 3.962 6.176c-.9.047-1.8.009-2.7.028-.177-.019-.419.037-.5-.158q-1.311-2.121-2.632-4.232c-.437.419-.865.837-1.311 1.237-.019 1.042.028 2.083-.019 3.125-.949.065-1.907.009-2.855.028-.018-4.492-.009-8.985-.009-13.477zm-32.628.1h3.051v11.08h7.506v2.3c-3.516-.009-7.032.009-10.547-.009-.019-4.458-.01-8.914-.01-13.371zm-38.135 1.89c.651.409 1.274.856 1.916 1.293-.326.446-.67.874-1 1.311q-2.5 3.195-4.985 6.408c-1.343-1.102-2.692-2.202-4.031-3.31.53-.67 1.06-1.33 1.6-1.99.744.716 1.5 1.414 2.242 2.13q1.841-2.526 3.683-5.032c.195-.27.39-.531.575-.81zm54.887 1.51a5.579 5.579 0 013.879 1.87 5 5 0 01.986 4.474 4.928 4.928 0 01-2.325 3.051 6.34 6.34 0 01-3.906.753 5.733 5.733 0 01-3.758-1.814 5.31 5.31 0 01-1.088-3.488 4.924 4.924 0 012.149-3.916 6.623 6.623 0 014.063-.93zm-1.237 2.176a2.515 2.515 0 00-1.75 1.486 4.178 4.178 0 00-.2 2.139 2.613 2.613 0 004.52 1.47 3.173 3.173 0 00.707-2.307 2.886 2.886 0 00-.9-2.214 2.591 2.591 0 00-2.372-.577zm8.11-1.107a6.184 6.184 0 014.623-1.023 4.374 4.374 0 012.911 1.432 5.157 5.157 0 01.874 1.618c-.949.158-1.9.316-2.846.456a1.883 1.883 0 00-.809-1.252 2.584 2.584 0 00-2.39.009 2.178 2.178 0 00-1.042 1.693 5.958 5.958 0 00.167 2.595 2.077 2.077 0 001.479 1.386 2.364 2.364 0 002.037-.353 2.649 2.649 0 00.725-1.423c.939.167 1.888.279 2.828.446a4.716 4.716 0 01-1.386 2.4 5.6 5.6 0 01-3.934 1.125 5.106 5.106 0 01-3.8-1.637 5.516 5.516 0 01-1.1-4.269 4.516 4.516 0 011.663-3.205zm19.672 7.776a1.12 1.12 0 011.321-.977 1.163 1.163 0 01.921.837v.474a1.137 1.137 0 01-2.242-.335zm.3 0c-.037.288.074.707.409.744a12.428 12.428 0 01-.009-1.191 4.3 4.3 0 01.846.037.531.531 0 01-.074.549c.074.186.14.381.2.577-.316.047-.372-.214-.456-.446l-.26-.056-.028.372c-.065.084-.251.2-.112.316a.8.8 0 001-.363.881.881 0 00-.446-1.256.827.827 0 00-1.073.714zm.67-.27c.009.121.009.251.019.372a.468.468 0 00.363-.316z" fill="#c32026"/></svg>