<svg xmlns="http://www.w3.org/2000/svg" width="55" height="35"><rect width="55" height="35" rx="2" fill="#fff"/><path d="M6.808 5.986h.471v12.506h-.471zm.942 0h.471v12.506H7.75zm2.828 0h.471v12.506h-.471zm9.168 0h.471v12.506h-.471zm3.065 0h.471v12.506h-.471zm2.972 0h.471v12.506h-.471zm.766 0h.471v12.506h-.471zm.767 0h.471v12.506h-.471zm.862 0h.471v12.506h-.471zm.862 0h.471v12.506h-.471zm2.396 0h.471v12.506h-.471zm5.941 0h.471v12.506h-.471zm6.197 0h.471v12.506h-.471zm1.695 0h.471v12.506h-.471zm1.225 0h.471v12.506h-.471zm.754 0h.471v12.506h-.471zm-33.56 0h.471v12.506h-.471zm-4.713 0h.848v12.506h-.848zm5.597 0h.848v12.506h-.848zm3.93 0h.848v12.506h-.848zm2.012 0h.848v12.506h-.848zm3.162 0h.848v12.506h-.848zm9.015 0h1.319v12.506h-1.319zm1.723 0h1.037v12.506h-1.037zm1.818 0h.848v12.506h-.848zm2.404 0h1.414v12.506h-1.414zm2.769 0h1.414v12.506h-1.414zm-29.885 0h1.696v12.506H11.52zm4.396 0h1.319v12.506h-1.319z" fill="#010101"/><path d="M7.418 29.596v-7.158h2.686a3.324 3.324 0 011.316.217 1.692 1.692 0 01.776.669 1.763 1.763 0 01.281.945 1.623 1.623 0 01-.249.864 1.778 1.778 0 01-.752.654 1.87 1.87 0 011 .649 1.739 1.739 0 01.349 1.084 2.091 2.091 0 01-.212.935 1.81 1.81 0 01-.527.667 2.191 2.191 0 01-.784.354 4.766 4.766 0 01-1.154.12zm.948-4.15h1.548a3.454 3.454 0 00.9-.083 1 1 0 00.544-.356 1.027 1.027 0 00.183-.625 1.151 1.151 0 00-.171-.627.865.865 0 00-.484-.372 4.078 4.078 0 00-1.089-.1H8.366zm0 3.306h1.782a4.1 4.1 0 00.645-.034 1.544 1.544 0 00.547-.2 1.037 1.037 0 00.361-.4 1.246 1.246 0 00.142-.6 1.189 1.189 0 00-.205-.7 1.082 1.082 0 00-.569-.415 3.527 3.527 0 00-1.047-.12H8.366zm5.843-2.642a3.89 3.89 0 01.957-2.791 3.254 3.254 0 012.471-1.008 3.428 3.428 0 011.787.474 3.093 3.093 0 011.213 1.321 4.29 4.29 0 01.417 1.921 4.218 4.218 0 01-.439 1.948 3 3 0 01-1.245 1.3 3.557 3.557 0 01-1.738.442 3.385 3.385 0 01-1.806-.487 3.142 3.142 0 01-1.207-1.334 4.04 4.04 0 01-.41-1.786zm.977.015a2.868 2.868 0 00.7 2.039 2.289 2.289 0 001.746.745 2.285 2.285 0 001.754-.753 3.04 3.04 0 00.691-2.134 3.667 3.667 0 00-.291-1.526 2.27 2.27 0 00-.864-1.011 2.343 2.343 0 00-1.277-.359 2.422 2.422 0 00-1.731.691 3.086 3.086 0 00-.728 2.307zm7.421 3.471v-7.158h.947v6.313h3.525v.845zm5.99 0v-7.158h5.176v.845h-4.229v2.192h3.96v.84h-3.96v2.436h4.395v.845zm8.842 0v-6.313H35.08v-.845h5.674v.845h-2.368v6.313zm4.188-3.486a3.89 3.89 0 01.959-2.791 3.254 3.254 0 012.471-1.008 3.428 3.428 0 011.787.474 3.093 3.093 0 011.213 1.321 4.29 4.29 0 01.417 1.921 4.218 4.218 0 01-.439 1.948 3 3 0 01-1.249 1.301 3.557 3.557 0 01-1.738.442 3.385 3.385 0 01-1.807-.488 3.142 3.142 0 01-1.204-1.334 4.04 4.04 0 01-.41-1.786zm.977.015a2.868 2.868 0 00.7 2.039 2.289 2.289 0 001.746.745 2.285 2.285 0 001.76-.752 3.04 3.04 0 00.691-2.134 3.667 3.667 0 00-.3-1.526 2.27 2.27 0 00-.864-1.011 2.343 2.343 0 00-1.277-.359 2.422 2.422 0 00-1.731.691 3.086 3.086 0 00-.726 2.306z"/></svg>