<svg xmlns="http://www.w3.org/2000/svg" width="112" height="36"><defs><style>.b{fill:#d1001f}.c{fill:#4c4c4b}</style></defs><g fill="#fff" stroke="#b5b5b5"><rect width="112" height="36" rx="4" stroke="none"/><rect x=".5" y=".5" width="111" height="35" rx="3.5" fill="none"/></g><path class="b" d="M28.906 7h-.59c-4.2.044-6.393 1.79-6.856 5.132l-.277 2.168a4.165 4.165 0 00.812 3.426 6.318 6.318 0 004.832 1.749h.589c4.108-.042 6.3-1.737 6.816-4.845h.006l.029-.223.276-2.165a4.3 4.3 0 00-.831-3.544c-.9-1.006-2.453-1.677-4.806-1.7m1.932 7.206a4.279 4.279 0 01-.731 2.055 2.93 2.93 0 01-2.426 1.077h-.646a2.387 2.387 0 01-2.233-1.009 3.631 3.631 0 01-.17-2.026l.258-1.975a3.882 3.882 0 011.033-2.379 3.1 3.1 0 012.238-.779h.6a2.372 2.372 0 011.954.731 3.115 3.115 0 01.381 2.33zM62.735 7h-.591c-4.2.044-6.395 1.79-6.858 5.132l-.278 2.168a4.165 4.165 0 00.812 3.426 6.317 6.317 0 004.831 1.751h.591c4.107-.042 6.3-1.737 6.814-4.845h.006l.028-.223.276-2.165a4.313 4.313 0 00-.83-3.544c-.9-1.006-2.453-1.677-4.8-1.7m1.932 7.206a4.306 4.306 0 01-.734 2.055 2.928 2.928 0 01-2.425 1.077h-.645a2.392 2.392 0 01-2.236-1.009 3.662 3.662 0 01-.17-2.026l.26-1.975a3.879 3.879 0 011.032-2.379 3.1 3.1 0 012.24-.779h.6a2.375 2.375 0 011.955.731 3.126 3.126 0 01.381 2.33zM98.927 8.701c-.9-1.006-2.453-1.677-4.8-1.7h-.591c-4.2.044-6.394 1.79-6.856 5.132l-.277 2.168a4.153 4.153 0 00.812 3.426 6.313 6.313 0 004.833 1.751h.587c4.108-.042 6.3-1.737 6.816-4.845l.03-.223.277-2.165a4.3 4.3 0 00-.831-3.544m-2.872 5.505a4.282 4.282 0 01-.734 2.055 2.928 2.928 0 01-2.426 1.077h-.644a2.391 2.391 0 01-2.235-1.009 3.655 3.655 0 01-.173-2.026l.262-1.975a3.887 3.887 0 011.031-2.379 3.106 3.106 0 012.242-.779h.6a2.379 2.379 0 011.955.731 3.129 3.129 0 01.38 2.33zM73.327 10.68a1.8 1.8 0 01.333.03 1.41 1.41 0 01.811.439 1.643 1.643 0 01.374 1.289l-.441 3.628-.117.932-.008.062h2.026a4.834 4.834 0 00.5-.032c.9-.1 2.381-.465 2.807-1.634.013-.032.021-.064.034-.1a5.97 5.97 0 00.214-1l.171-1.267.082-.593a5.479 5.479 0 00.027-1.345c-.139-1.169-1.528-1.538-2.406-1.636a4.435 4.435 0 00-.5-.03H73.663v-.007a1.925 1.925 0 01-.964-.243 1.835 1.835 0 01-.663-1.548l-.011-.367h5.342c2.656.023 4.417.56 5.383 1.642a4.072 4.072 0 01.824 3.362l-.1.764-.139 1.185c-.021.157-.047.44-.075.589a5.792 5.792 0 01-.66 1.97 4.254 4.254 0 01-1.417 1.477 5.083 5.083 0 01-.625.33 7.073 7.073 0 01-1.583.5 8.293 8.293 0 01-.827.093c-.415.032-.918.049-1.432.057H72.61a2.3 2.3 0 01-1.711-.5.918.918 0 01-.132-.2 1.211 1.211 0 01-.1-.7l.441-3.349.468-3.817zM19.054 17.063h-4.787a6.118 6.118 0 01-1.567-.172 1.744 1.744 0 01-.906-.527 1.48 1.48 0 01-.311-.656c0-.023-.009-.05-.011-.074a2.853 2.853 0 01-.045-.357 5.337 5.337 0 01.043-1.04l.24-1.829a5.719 5.719 0 01.115-.6c.014-.052.032-.116.053-.2a.381.381 0 01.011-.038 3.845 3.845 0 01.149-.438c.014-.035.027-.068.042-.1a3.306 3.306 0 01.177-.324 2.317 2.317 0 01.2-.262 2.6 2.6 0 011.128-.734 5.677 5.677 0 011.873-.256h2.649l.006-.008a2.305 2.305 0 001.03-.245 2.067 2.067 0 00.641-.626c.028-.04.048-.09.073-.133a3.311 3.311 0 00.333-.8l.109-.375h-5.347a12.062 12.062 0 00-1.651.128c-2.978.445-4.581 2.07-4.961 4.821l-.268 2.091a4.01 4.01 0 00.784 3.3 5.864 5.864 0 004.248 1.64l3.618-.007a3.268 3.268 0 001.178-.189 2.13 2.13 0 00.758-.833c.047-.087.092-.174.133-.271a4.7 4.7 0 00.263-.886zM40.556 17.338l-.018.148a2.082 2.082 0 01-.692 1.289 1.889 1.889 0 01-1.259.47h-1.785l.165-1.365.067-.543 1.229-10.073h1.462a2.084 2.084 0 011.871.721l3.242 5.179 4.611-5.23a2.538 2.538 0 011.966-.67h1.524l-1.251 10.073-.018.146a2.093 2.093 0 01-.692 1.29 1.9 1.9 0 01-1.258.468h-1.721l.866-6.987-3.627 4.576a1.29 1.29 0 01-.851.5h-.029a1.074 1.074 0 01-.779-.556l-2.392-4.542-.63 5.106"/><g><path class="c" d="M13.353 26.752a1.646 1.646 0 01-.705 1.332 2.876 2.876 0 01-1.763.509 2.663 2.663 0 01-2.12-.886 3.6 3.6 0 01-.769-2.444 3.7 3.7 0 01.769-2.485 2.633 2.633 0 012.12-.9 2.941 2.941 0 011.8.5 1.593 1.593 0 01.668 1.342h-.9a.944.944 0 00-.407-.793 1.735 1.735 0 00-1.063-.3 1.865 1.865 0 00-1.533.665 2.892 2.892 0 00-.542 1.874 3.25 3.25 0 00.533 1.993 1.769 1.769 0 001.5.707 1.734 1.734 0 001.045-.293 1.141 1.141 0 00.467-.814zM14.412 23.961h.831v.458a1.54 1.54 0 011.259-.586l.224.009v.774l-.17-.009a1.236 1.236 0 00-1 .373 1.851 1.851 0 00-.31 1.194v2.287h-.831zM19.759 28.593a2.007 2.007 0 01-1.557-.614 2.418 2.418 0 01-.563-1.7 2.65 2.65 0 01.566-1.8 1.947 1.947 0 011.555-.653 1.848 1.848 0 011.46.566 2.392 2.392 0 01.5 1.645l-.008.3h-3.208a2.328 2.328 0 00.294 1.168 1.04 1.04 0 00.938.455 1.093 1.093 0 00.744-.253 1.057 1.057 0 00.347-.7h.855a1.711 1.711 0 01-.587 1.168 2.063 2.063 0 01-1.336.418zm1.112-2.863a1.722 1.722 0 00-.256-.907 1.074 1.074 0 00-.925-.366 1.033 1.033 0 00-.883.426 1.683 1.683 0 00-.293.847zM24.256 28.593a1.806 1.806 0 01-1.21-.374 1.387 1.387 0 01.162-2.152 2.93 2.93 0 011.653-.4h.751v-.38a.749.749 0 00-.248-.627 1.264 1.264 0 00-.8-.2.936.936 0 00-.6.181.687.687 0 00-.257.5h-.869a1.262 1.262 0 01.485-.991 2.241 2.241 0 011.313-.314 2.026 2.026 0 011.309.4 1.279 1.279 0 01.5 1.049v1.567c0 .426.01.784.034 1.071a1.779 1.779 0 00.089.544h-.787a.681.681 0 01-.077-.3 3.827 3.827 0 01-.034-.383 1.9 1.9 0 01-.187.278 1.5 1.5 0 01-1.227.531zm1.357-2.318h-.761a1.95 1.95 0 00-1.055.229.769.769 0 00-.351.687.708.708 0 00.248.575 1.074 1.074 0 00.7.2 1.148 1.148 0 00.911-.345 1.5 1.5 0 00.306-1.012zM30.068 28.526a4.747 4.747 0 01-.816.063 1.234 1.234 0 01-.792-.256.775.775 0 01-.325-.628v-3.146h-.933v-.6h.933v-.811l.828-.343v1.154h1.1v.6h-1.1v2.953a.444.444 0 00.121.346.549.549 0 00.38.108 3.473 3.473 0 00.6-.059zM31.094 22.003h.91v.847h-.91zm.04 1.96h.83v4.5h-.83zM33.557 23.961h.771v.622a1.483 1.483 0 01.141-.179 1.772 1.772 0 011.383-.572 1.656 1.656 0 011.306.473 2.179 2.179 0 01.417 1.474v2.682h-.833v-2.669a1.55 1.55 0 00-.262-1 1.024 1.024 0 00-.833-.312 1.225 1.225 0 00-.964.341 1.64 1.64 0 00-.3 1.1v2.54h-.83zM40.851 29.651a1.21 1.21 0 00.959-.329 1.75 1.75 0 00.282-1.123v-.6l-.138.192a1.63 1.63 0 01-1.323.611 1.684 1.684 0 01-1.379-.615 2.6 2.6 0 01-.5-1.7 2.377 2.377 0 01.556-1.623 1.816 1.816 0 011.427-.633 1.536 1.536 0 011.291.61l.069.086v-.566h.829v4.236a2.141 2.141 0 01-.5 1.577 2.176 2.176 0 01-1.587.5 2.219 2.219 0 01-1.39-.353 1.332 1.332 0 01-.442-1.109h.867a.792.792 0 00.236.638 1.149 1.149 0 00.743.201zm.009-5.2a1.061 1.061 0 00-.908.435 2 2 0 00-.323 1.218 2.16 2.16 0 00.3 1.269 1.2 1.2 0 001.837-.021 2.513 2.513 0 000-2.466 1.069 1.069 0 00-.907-.438zM49.129 22.735h-2.166v-.733h5.216v.733h-2.166v5.727h-.884zM53.203 23.961h.833v.458a1.542 1.542 0 011.259-.586l.225.009v.774l-.168-.009a1.23 1.23 0 00-1 .373 1.85 1.85 0 00-.313 1.194v2.287h-.829zM57.428 26.653a1.554 1.554 0 00.261 1 1.032 1.032 0 00.833.311 1.248 1.248 0 001-.348 1.567 1.567 0 00.264-1.112v-2.541h.828v4.5h-.768v-.585l-.092.118a1.747 1.747 0 01-1.383.6 1.7 1.7 0 01-1.34-.483 2.235 2.235 0 01-.429-1.513v-2.637h.83zM64.624 25.176a.632.632 0 00-.241-.525 1.032 1.032 0 00-.666-.194 1.248 1.248 0 00-.682.16.513.513 0 00-.242.449.476.476 0 00.133.348.843.843 0 00.4.211l.918.247a2.335 2.335 0 011.006.49 1.031 1.031 0 01.3.778 1.276 1.276 0 01-.5 1.065 2.178 2.178 0 01-1.37.387 2.209 2.209 0 01-1.4-.378 1.32 1.32 0 01-.479-1.1h.858a.777.777 0 00.269.629 1.122 1.122 0 00.747.228 1.317 1.317 0 00.772-.2.647.647 0 00.274-.558.46.46 0 00-.171-.359 1.359 1.359 0 00-.522-.242l-.915-.247a1.925 1.925 0 01-.9-.454 1.066 1.066 0 01-.27-.771 1.128 1.128 0 01.466-.959 2.55 2.55 0 012.586.008 1.172 1.172 0 01.468.985zM69.347 28.526a4.745 4.745 0 01-.815.063 1.24 1.24 0 01-.793-.256.771.771 0 01-.325-.628v-3.146h-.934v-.6h.934v-.811l.828-.343v1.154h1.1v.6h-1.1v2.953a.443.443 0 00.12.346.551.551 0 00.38.108 3.487 3.487 0 00.606-.059zM74.048 27.689a3.718 3.718 0 01-.772-2.495 3.577 3.577 0 01.772-2.437 3 3 0 014.251 0 3.587 3.587 0 01.769 2.437 3.729 3.729 0 01-.769 2.495 2.952 2.952 0 01-4.251 0zm3.611-.523a3.19 3.19 0 00.527-1.963 3.07 3.07 0 00-.527-1.916 1.963 1.963 0 00-2.972 0 3.065 3.065 0 00-.527 1.916 3.185 3.185 0 00.527 1.963 1.939 1.939 0 002.972 0zM80.205 23.961h.768v.622a1.377 1.377 0 01.142-.179 1.772 1.772 0 011.383-.572 1.656 1.656 0 011.305.473 2.179 2.179 0 01.417 1.474v2.682h-.829v-2.669a1.558 1.558 0 00-.261-1 1.026 1.026 0 00-.833-.312 1.223 1.223 0 00-.965.341 1.64 1.64 0 00-.3 1.1v2.54h-.829zM85.621 22.003h.828v6.46h-.828zM88.051 22.003h.912v.847h-.912zm.041 1.96h.83v4.5h-.83zM90.515 23.961h.771v.622a1.376 1.376 0 01.141-.179 1.768 1.768 0 011.383-.572 1.656 1.656 0 011.306.473 2.186 2.186 0 01.416 1.474v2.682h-.828v-2.669a1.558 1.558 0 00-.261-1 1.027 1.027 0 00-.834-.312 1.223 1.223 0 00-.964.341 1.64 1.64 0 00-.3 1.1v2.54h-.83zM97.831 28.593a2.008 2.008 0 01-1.557-.614 2.416 2.416 0 01-.562-1.7 2.652 2.652 0 01.564-1.8 1.945 1.945 0 011.555-.653 1.852 1.852 0 011.46.566 2.392 2.392 0 01.5 1.645l-.01.3h-3.209a2.308 2.308 0 00.293 1.168 1.039 1.039 0 00.938.455 1.1 1.1 0 00.744-.253 1.062 1.062 0 00.347-.7h.855a1.708 1.708 0 01-.588 1.168 2.056 2.056 0 01-1.33.418zm1.113-2.863a1.721 1.721 0 00-.257-.907 1.076 1.076 0 00-.925-.366 1.029 1.029 0 00-.882.426 1.669 1.669 0 00-.294.847zM101.952 22.733a1.252 1.252 0 11-1.293 1.248 1.263 1.263 0 011.285-1.248zm-.015.251a1 1 0 00.015 1.995.955.955 0 00.953-1 .966.966 0 00-.961-1zm-.189 1.645h-.29v-1.241a2.411 2.411 0 01.48-.046.7.7 0 01.433.1.338.338 0 01.123.266.322.322 0 01-.259.3v.014c.123.038.191.137.229.3a.77.77 0 00.091.3h-.311a1.025 1.025 0 01-.1-.3c-.024-.137-.1-.2-.259-.2h-.136zm.007-.7h.138c.16 0 .288-.052.288-.182 0-.114-.083-.189-.265-.189a.726.726 0 00-.161.014z"/></g></svg>