<svg xmlns="http://www.w3.org/2000/svg" width="55" height="35"><g transform="translate(-.373 -.371)"><rect width="55" height="35" rx="2" transform="translate(.373 .371)"/><path d="M15.94 31.346v-1.863a1.084 1.084 0 0 0-1.148-1.18 1.227 1.227 0 0 0-1.056.525 1.079 1.079 0 0 0-.993-.525 1.054 1.054 0 0 0-.9.435v-.375h-.59v2.98h.59v-1.705a.7.7 0 0 1 .745-.776c.435 0 .683.28.683.776v1.708h.59v-1.708a.7.7 0 0 1 .745-.776c.435 0 .683.28.683.776v1.708zm9.687-2.95H24.54v-.9h-.589v.9h-.621v.525h.621v1.4c0 .683.248 1.087.993 1.087a1.739 1.739 0 0 0 .806-.217l-.186-.525a1.025 1.025 0 0 1-.559.155.435.435 0 0 1-.466-.5v-1.427h1.087v-.5zm5.526-.093a.928.928 0 0 0-.807.435v-.375h-.59v2.98h.59v-1.674c0-.5.248-.808.652-.808a1.835 1.835 0 0 1 .4.062l.186-.559a2.062 2.062 0 0 0-.431-.061zm-8.352.31a2.131 2.131 0 0 0-1.211-.31c-.745 0-1.211.342-1.211.932 0 .5.342.776.993.87l.31.03c.342.062.559.187.559.342 0 .217-.248.375-.715.375a1.637 1.637 0 0 1-.993-.311l-.311.466a2.258 2.258 0 0 0 1.274.375c.87 0 1.335-.4 1.335-.962 0-.525-.375-.776-1.025-.87l-.311-.031c-.279-.031-.525-.125-.525-.31 0-.217.248-.375.59-.375a2.235 2.235 0 0 1 .931.248zm9 1.242a1.467 1.467 0 0 0 1.553 1.553 1.541 1.541 0 0 0 1.056-.342l-.311-.465a1.255 1.255 0 0 1-.776.28.994.994 0 0 1 0-1.984 1.255 1.255 0 0 1 .776.28l.311-.466a1.548 1.548 0 0 0-1.056-.341 1.4 1.4 0 0 0-1.553 1.49zm-4.16-1.552a1.428 1.428 0 0 0-1.459 1.552 1.459 1.459 0 0 0 1.521 1.553 1.9 1.9 0 0 0 1.211-.4l-.31-.435a1.484 1.484 0 0 1-.87.311.87.87 0 0 1-.9-.776h2.2v-.248a1.4 1.4 0 0 0-1.4-1.553zm-.03.559a.742.742 0 0 1 .776.745h-1.612a.841.841 0 0 1 .839-.745zm-8.042.993v-1.49h-.59v.375a1.137 1.137 0 0 0-.962-.435 1.555 1.555 0 0 0 0 3.1 1.141 1.141 0 0 0 .962-.435v.375h.59zm-2.39 0a.919.919 0 1 1 .932.993.9.9 0 0 1-.929-.993zm22.945-1.552a.928.928 0 0 0-.807.435v-.375h-.59v2.98h.589v-1.674c0-.5.248-.808.652-.808a1.833 1.833 0 0 1 .4.062l.187-.559a2.093 2.093 0 0 0-.435-.062zm-2.3 1.552v-1.49h-.59v.375a1.137 1.137 0 0 0-.963-.435 1.555 1.555 0 0 0 0 3.1 1.141 1.141 0 0 0 .963-.435v.375h.59zm-2.391 0a.919.919 0 1 1 .932.993.9.9 0 0 1-.927-.993zm8.383 0v-2.67h-.59v1.553a1.137 1.137 0 0 0-.962-.435 1.555 1.555 0 0 0 0 3.1 1.141 1.141 0 0 0 .962-.435v.375h.59zm-2.39 0a.919.919 0 1 1 .932.993.9.9 0 0 1-.933-.993z" fill="#fff"/><path d="M22.118 5.761h10.774v17.574H22.118z" fill="#ff5f00"/><path d="M23.208 14.548a11.209 11.209 0 0 1 4.253-8.787 11.177 11.177 0 1 0 0 17.574 11.209 11.209 0 0 1-4.253-8.787z" fill="#eb001b"/><path d="M45.56 14.548a11.166 11.166 0 0 1-18.066 8.787 11.2 11.2 0 0 0 0-17.574 11.166 11.166 0 0 1 18.066 8.787z" fill="#f79e1b"/></g></svg>