<svg xmlns="http://www.w3.org/2000/svg" width="55" height="35"><g transform="translate(-.001)"><rect width="55" height="35" rx="2" fill="#0e4595"/><path d="M20.354 25.226l2.474-14.776h3.958L24.31 25.226zm18.253-14.457a10.069 10.069 0 00-3.546-.62c-3.91 0-6.665 2-6.688 4.876-.022 2.123 1.966 3.308 3.467 4.014 1.54.724 2.059 1.186 2.051 1.833-.01.99-1.23 1.443-2.368 1.443a8.17 8.17 0 01-3.725-.776l-.51-.234-.555 3.308a12.336 12.336 0 004.408.788c4.16 0 6.86-1.981 6.891-5.048.015-1.681-1.039-2.96-3.323-4.014-1.383-.684-2.23-1.14-2.221-1.832 0-.614.717-1.271 2.266-1.271a7.2 7.2 0 012.962.566l.355.171.536-3.2m10.183-.319h-3.055a1.964 1.964 0 00-2.072 1.225L37.786 25.22h4.149s.679-1.82.833-2.22l5.068.006c.118.517.481 2.214.481 2.214h3.672zm-4.855 9.54c.327-.851 1.577-4.13 1.577-4.13-.023.039.325-.856.525-1.41l.267 1.274.916 4.267zm-26.944-9.541l-3.874 10.076-.413-2.048a11.466 11.466 0 00-5.48-6.2l3.542 12.922 4.187-.005 6.23-14.747h-4.188" fill="#fff"/><path d="M9.546 10.451H3.052l-.051.308c5.052 1.223 8.4 4.179 9.783 7.73l-1.412-6.79a1.686 1.686 0 00-1.826-1.247" fill="#f2ae14"/></g></svg>
